<svg width="32" height="32" viewBox="0 0 32 32" fill="none" xmlns="http://www.w3.org/2000/svg">
<path d="M2.5184 8.45759L14.5184 14.904C14.9216 15.12 15.4432 15.2224 15.968 15.2224C16.4928 15.2224 17.0144 15.12 17.4176 14.904L29.4176 8.45759C30.2 8.03679 30.9392 6.39999 29.504 6.39999H2.4336C0.9984 6.39999 1.7376 8.03679 2.5184 8.45759ZM29.7808 11.9824L17.4176 18.4256C16.8736 18.7104 16.4928 18.744 15.968 18.744C15.4432 18.744 15.0624 18.7104 14.5184 18.4256C13.9744 18.1408 3.1056 12.4432 2.2176 11.9808C1.5936 11.6544 1.6 12.0368 1.6 12.3312V24C1.6 24.672 2.5056 25.6 3.2 25.6H28.8C29.4944 25.6 30.4 24.672 30.4 24V12.3328C30.4 12.0384 30.4064 11.656 29.7808 11.9824Z" fill="black"/>
</svg>
