<svg width="32" height="32" viewBox="0 0 32 32" fill="none" xmlns="http://www.w3.org/2000/svg">
<path d="M16.024 15.9184H15.976C14.0704 15.9184 12.392 15.4336 11.3984 16.3472C11.1284 16.5871 10.9134 16.8823 10.7679 17.2128C10.6224 17.5433 10.5498 17.9013 10.5552 18.2624C10.5552 21.2256 12.928 21.5904 15.9776 21.5904H16.024C19.072 21.5904 21.4464 21.224 21.4464 18.2624C21.4464 17.5536 21.1968 16.8928 20.6032 16.3472C19.608 15.4336 17.9296 15.9184 16.024 15.9184ZM13.4288 19.968C12.848 19.968 12.3792 19.3152 12.3792 18.512C12.3792 17.7088 12.848 17.0592 13.4288 17.0592C14.0096 17.0592 14.48 17.7088 14.48 18.512C14.4816 19.3152 14.0112 19.968 13.4288 19.968ZM18.5696 19.968C17.9888 19.968 17.5184 19.3152 17.5184 18.512C17.5184 17.7088 17.9888 17.0592 18.5696 17.0592C19.1488 17.0592 19.6192 17.7088 19.6192 18.512C19.6208 19.3152 19.1504 19.968 18.5696 19.968ZM16 0.639999C7.5168 0.639999 0.64 7.5168 0.64 16C0.64 24.4832 7.5168 31.36 16 31.36C24.4832 31.36 31.36 24.4832 31.36 16C31.36 7.5168 24.4832 0.639999 16 0.639999ZM17.4016 22.3024C17.1264 22.3024 16.5792 22.3024 16 22.3056C15.4208 22.3024 14.8736 22.3024 14.5984 22.3024C13.3824 22.3024 8.5632 22.208 8.5632 16.4C8.5632 15.0656 9.0208 14.088 9.7712 13.272C9.6528 12.9776 9.6464 11.3008 10.2832 9.6944C10.2832 9.6944 11.7488 9.8544 13.9648 11.376C14.4272 11.2464 15.2144 11.1808 16 11.1808C16.7856 11.1808 17.5712 11.2464 18.0368 11.3744C20.2528 9.8528 21.7184 9.6928 21.7184 9.6928C22.3552 11.2992 22.3504 12.9776 22.2304 13.2704C22.9808 14.0864 23.4384 15.064 23.4384 16.3984C23.4368 22.2096 18.6176 22.3024 17.4016 22.3024Z" fill="black"/>
</svg>
